<svg version="1" xmlns="http://www.w3.org/2000/svg" width="933.333" height="933.333" viewBox="0 0 700.000000 700.000000"><path d="M389.1 349.6v255.5l74.7-.4c41.1-.2 77.2-.7 80.2-1 42.7-5 67.4-12.1 93-26.8 3.5-2 17.2-11.9 19.1-13.8.9-.9 3.1-3 5-4.7 8.7-7.9 18.7-21.1 24.5-32.6 10.3-20.3 14.3-40 13.9-67.3-.9-51.8-23.8-89.5-69-113-5.5-2.9-12.1-6.1-14.7-7l-4.8-1.8 8.9-5.8c28.1-18.5 46-46.4 50.7-78.9 1.2-8.3 1.2-37.8-.1-45-5.5-31.7-18.8-54.4-43.5-74.5-8.5-6.9-26.6-16.7-40.2-21.8-7.2-2.8-22.7-7.3-27.7-8.2-1.9-.3-3.7-.8-4-1-.4-.2-2.6-.6-5.1-1-2.5-.4-4.7-.8-5-1-.3-.2-3.4-.6-7-1s-6.7-.8-7-1c-.3-.2-4.3-.6-9-1s-9.8-.9-11.5-1.2c-1.6-.2-29.6-.6-62.2-.8l-59.2-.4v255.5zM512 117.4c15.6 1.5 31.3 3.9 42 6.2 65.4 14.6 97.6 50.9 96.3 108.6-.7 31.7-11.5 55.8-33.3 73.8-7.9 6.5-9.2 7.3-33.7 21.4-12.3 7-22.3 13.1-22.3 13.6 0 .4 1.9 1.4 4.3 2.3 2.3.8 11.8 4.3 21.2 7.7 9.3 3.4 19.6 7.3 23 8.6 45.1 18.6 68.5 53.4 68.7 102.2 0 7.7-.9 20.9-1.7 25.2-4.4 22.6-14.3 41.4-29.4 55.8-15.5 14.8-42.5 27.1-74.6 34.1-8.8 1.9-11.3 2.3-22.5 3.6-3 .4-6.5.8-7.8 1-10 1.6-128.1 2.9-130.1 1.5-.4-.3-.8-105.4-.8-233.6V116.2l47.1.3c25.9.2 50 .6 53.6.9zM175.1 123.8c-13.9 38.2-16.2 44.7-21.2 58.2-2.3 6.3-4.8 13.3-5.6 15.5l-8 22c-3.6 9.9-8.2 22.7-10.3 28.5-2.1 5.8-4.5 12.2-5.3 14.3-.9 2-1.7 4.1-1.8 4.5-.2 1 3.4-9.1-60.5 166.7-32.8 90.2-60.2 165.7-61 167.7L.1 605h23.4l6.4-17.8c3.4-9.7 7.6-21.1 9.2-25.2 1.5-4.1 12.1-33.1 23.4-64.5 11.4-31.4 22.2-61.1 24-66 3.1-8.4 8.4-22.9 16-44 1.8-5 7.8-21.6 13.4-37 5.6-15.4 10.5-28.9 11-30 .5-1.1 3.2-8.5 6.1-16.5 2.9-8 7-19.5 9.2-25.5 2.2-6.1 5.8-16 8-22 2.2-6.1 4.3-11.9 4.8-13 .5-1.1 7.5-20.6 15.7-43.2 8.1-22.7 15-41.3 15.3-41.3.6 0 8.2 20.8 70.5 192.5 20.1 55.5 37 101.9 37.5 103 .5 1.1 3.8 10.1 7.3 20 10.2 28.2 23.5 65 27.8 76.5 2.1 5.8 5.6 15.3 7.7 21.2l4 10.8-134.2.2-134.1.3-.1 10.7-.2 10.8h63.2c148.3.1 235.9 0 236.3-.3.1-.2-3.7-11.3-8.6-24.8-4.9-13.4-17.1-46.9-27.1-74.4-10-27.5-26.1-71.6-35.7-98-9.6-26.4-19.4-53.4-21.8-60-5.8-16.4-32.3-89.1-34-93.5-.7-2-4.3-11.9-8-22-3.7-10.2-7.9-21.9-9.4-26-1.6-4.1-11.3-30.8-21.6-59.3-10.4-28.4-19.1-51.7-19.4-51.7-.3 0-5.3 12.9-11 28.8z"/></svg>