<svg xmlns="http://www.w3.org/2000/svg" viewBox="0 0 516 516"><linearGradient id="a" gradientUnits="userSpaceOnUse" x1="8.691" y1="197.558" x2="265.806" y2="454.672"><stop offset="0" stop-color="#16bffd"/><stop offset=".25" stop-color="#65a2f9"/><stop offset=".5" stop-color="#a07fdd"/><stop offset=".75" stop-color="#c456a8"/><stop offset="1" stop-color="#cb3066"/></linearGradient><path d="M53.3 429.9h197.9l-114-313.6L17.2 446H.1L137.2 69l137.2 377.1H53.3v-16.2z" fill="url(#a)"/><linearGradient id="b" gradientUnits="userSpaceOnUse" x1="229.883" y1="126.594" x2="501.323" y2="398.034"><stop offset="0" stop-color="#16bffd"/><stop offset=".25" stop-color="#65a2f9"/><stop offset=".5" stop-color="#a07fdd"/><stop offset=".75" stop-color="#c456a8"/><stop offset="1" stop-color="#cb3066"/></linearGradient><path d="M373 446.1h-86.1V69.5h65.6c47.3 0 83 8.7 107 26.1 24 17.4 36 41.9 36 73.4 0 35.9-15.1 62.2-45.2 79.1 43.7 16.5 65.6 47.5 65.6 93.1 0 32.3-11.8 57.8-35.5 76.7-23.5 18.8-59.3 28.2-107.4 28.2zm0-16.2c16.9 0 32.3-1.3 46.3-4s27.3-7.2 40.1-13.4c12.7-6.3 22.7-15.5 29.9-27.7 7.2-12.2 10.8-26.7 10.8-43.6 0-38.4-18.5-64.4-55.4-78l-32.3-11.8 30.1-17.2c24.7-13.6 37.1-35.3 37.1-65.1 0-55.6-42.3-83.4-126.9-83.4h-49.5V430H373z" fill="url(#b)"/></svg>